<svg width="222.077637" height="35.280029" viewBox="0 0 222.078 35.28" fill="none" xmlns="http://www.w3.org/2000/svg" xmlns:xlink="http://www.w3.org/1999/xlink">
	<desc>
			Created with Pixso.
	</desc>
	<defs>
		<filter id="filter_26_1321_dd" x="-1.460938" y="7.539917" width="20.982910" height="22.921631" filterUnits="userSpaceOnUse" color-interpolation-filters="sRGB">
			<feFlood flood-opacity="0" result="BackgroundImageFix"/>
			<feBlend mode="normal" in="SourceGraphic" in2="BackgroundImageFix" result="shape"/>
			<feGaussianBlur stdDeviation="0.487081" result="effect_layerBlur_1"/>
		</filter>
	</defs>
	<rect id="logo" width="220.000000" height="35.000000" fill="#FFFFFF" fill-opacity="0"/>
	<path id="SkyFitnessPro" d="M42.6763 17.752C40.8281 16.4359 39.3999 14.7839 39.3999 12.012C39.3999 8.23193 41.8359 6.71997 44.832 6.71997C47.8843 6.71997 50.3203 8.53992 50.3203 12.3199L50.3203 13.72L46.96 13.72L46.96 12.4039C46.96 10.6119 46.1479 9.79993 44.832 9.79993C43.6001 9.79993 42.7603 10.584 42.7603 12.012C42.7603 13.412 43.6562 14.28 44.832 15.12L47.2959 16.8839C49.1162 18.2 50.6001 19.8519 50.6001 22.5399C50.6001 26.376 48.0239 28.28 44.8604 28.28C41.6963 28.28 39.1201 26.292 39.1201 22.6799L39.1201 21L42.48 21L42.48 22.484C42.48 24.1639 43.4321 25.2 44.8604 25.2C46.3159 25.2 47.2402 24.36 47.2402 22.96C47.2402 21.392 46.3159 20.356 45.0562 19.46L42.6763 17.752ZM54.1099 7L57.4697 7L57.4697 20.104L62.9019 14L67.3262 14L61.166 20.356L67.6899 28L63.4897 28L57.4697 20.636L57.4697 28L54.1099 28L54.1099 7ZM89.4492 19.3199L89.4492 28L86.0894 28L86.0894 7L95.7212 7L95.7212 10.08L89.4492 10.08L89.4492 16.24L94.8813 16.24L94.8813 19.3199L89.4492 19.3199ZM102.57 9.09998C102.57 10.276 101.702 11.2 100.47 11.2C99.2661 11.2 98.3701 10.276 98.3701 9.09998C98.3701 7.896 99.2661 7 100.47 7C101.702 7 102.57 7.896 102.57 9.09998ZM185.15 20.1599L185.15 28L181.791 28L181.791 7L187.922 7C191.367 7 193.831 8.98792 193.831 12.74L193.831 14.14C193.831 18.032 191.367 20.1599 187.922 20.1599L185.15 20.1599ZM110.823 16.9399L110.823 23.2119C110.823 24.584 111.467 25.2 112.923 25.2C113.399 25.2 113.987 25.116 114.463 24.948L114.463 27.944C113.959 28.1119 113.063 28.28 112.251 28.28C109.479 28.28 107.463 27.188 107.463 23.436L107.463 16.9399L105.224 16.9399L105.224 14L107.463 14L107.463 9.79993L110.823 9.79993L110.823 14L114.463 14L114.463 16.9399L110.823 16.9399ZM190.471 13.02C190.471 10.892 189.378 10.08 187.643 10.08L185.15 10.08L185.15 17.08L187.643 17.08C189.378 17.08 190.471 16.156 190.471 13.86L190.471 13.02ZM127.333 28L127.333 20.2999C127.333 17.948 126.213 16.6599 124.394 16.6599C122.574 16.6599 121.454 17.948 121.454 20.2999L121.454 28L118.094 28L118.094 14L121.454 14L121.454 16.016C122.322 14.532 123.75 13.72 125.485 13.72C128.454 13.72 130.693 15.6799 130.693 19.6279L130.693 28L127.333 28ZM147.94 21C147.94 21.392 147.913 21.756 147.884 22.12L137.356 22.12C137.72 24.1639 139.064 25.34 141.136 25.34C142.621 25.34 143.488 24.78 143.937 23.7999L147.577 23.7999C146.736 26.7119 144.3 28.28 140.997 28.28C136.993 28.28 134.052 25.2839 134.052 21C134.052 16.7159 136.993 13.72 140.997 13.72C145 13.72 147.94 16.7159 147.94 21ZM154.252 17.808C154.252 20.496 162.484 18.2 162.484 23.968C162.484 26.6279 160.048 28.28 156.772 28.28C153.272 28.28 150.612 26.4879 150.612 23.38L154.112 23.38C154.112 24.892 155.26 25.6479 156.772 25.6479C158.172 25.6479 159.012 25.1439 159.012 24.1079C159.012 21.14 150.864 23.6599 150.864 17.948C150.864 15.344 153.244 13.72 156.352 13.72C159.712 13.72 162.232 15.792 162.232 18.452L158.732 18.452C158.732 17.276 157.724 16.38 156.352 16.38C155.092 16.38 154.252 16.912 154.252 17.808ZM168.921 17.808C168.921 20.496 177.153 18.2 177.153 23.968C177.153 26.6279 174.717 28.28 171.441 28.28C167.941 28.28 165.281 26.4879 165.281 23.38L168.781 23.38C168.781 24.892 169.929 25.6479 171.441 25.6479C172.841 25.6479 173.681 25.1439 173.681 24.1079C173.681 21.14 165.533 23.6599 165.533 17.948C165.533 15.344 167.913 13.72 171.021 13.72C174.381 13.72 176.901 15.792 176.901 18.452L173.401 18.452C173.401 17.276 172.393 16.38 171.021 16.38C169.761 16.38 168.921 16.912 168.921 17.808ZM197.198 14L200.558 14L200.558 16.2679C201.566 14.616 203.218 13.72 205.262 13.72C205.514 13.72 205.794 13.72 205.962 13.776L205.962 17.444C205.57 17.304 205.066 17.22 204.506 17.22C202.014 17.22 200.558 18.5079 200.558 20.86L200.558 28L197.198 28L197.198 14ZM222.078 21C222.078 25.2839 219.026 28.28 214.938 28.28C210.85 28.28 207.798 25.2839 207.798 21C207.798 16.7159 210.85 13.72 214.938 13.72C219.026 13.72 222.078 16.7159 222.078 21ZM82.4302 14L77.1382 29.4559C75.9619 32.9 74.4502 35.28 70.894 35.28C70.082 35.28 69.27 35.14 68.7378 34.9719L68.7378 32.004C69.27 32.172 69.9141 32.312 70.5859 32.312C72.1538 32.312 73.1338 31.3879 73.9458 29.428L68.6821 14L72.042 14L75.542 24.78L79.0698 14L82.4302 14ZM102.15 14L102.15 28L98.79 28L98.79 14L102.15 14ZM144.608 19.74C144.245 17.78 142.957 16.6599 140.997 16.6599C139.037 16.6599 137.749 17.78 137.384 19.74L144.608 19.74ZM211.158 21C211.158 23.52 212.782 25.2 214.938 25.2C217.094 25.2 218.718 23.52 218.718 21C218.718 18.48 217.094 16.7999 214.938 16.7999C212.782 16.7999 211.158 18.48 211.158 21Z" fill="#FFFFFF" fill-opacity="1.000000" fill-rule="evenodd"/>
	<path id="Left Triangle" d="M3.68848 28.4581C1.54199 29.698 0 28.6648 0 26.8269C0 24.8706 0 19.0004 0 19.0004C0 19.0004 0 13.1301 0 11.1737C0 9.33594 1.54102 8.30273 3.68848 9.5426C7.03174 11.4731 17.0601 17.2668 17.0601 17.2668C18.3936 18.037 18.3936 19.9628 17.0601 20.7329C17.0601 20.7339 7.03174 26.5275 3.68848 28.4581Z" fill="#00C1FF" fill-opacity="1.000000" fill-rule="nonzero"/>
	<path id="Right Triangle" d="M14.7266 28.4574C12.5801 29.6973 11.0381 28.6641 11.0381 26.8262C11.0381 24.8699 11.0381 18.9996 11.0381 18.9996C11.0381 18.9996 11.0381 13.1294 11.0381 11.173C11.0381 9.33521 12.5791 8.302 14.7266 9.54187C17.9961 11.4303 27.8042 17.0968 27.8042 17.0968C29.269 17.9425 29.269 20.0568 27.8042 20.9025C27.8032 20.9025 17.9961 26.5688 14.7266 28.4574Z" fill="#BCEC30" fill-opacity="1.000000" fill-rule="nonzero"/>
	<mask id="mask26_1320" mask-type="alpha" maskUnits="userSpaceOnUse" x="11.038086" y="9.000000" width="17.864746" height="19.999146">
		<path id="Mask" d="M14.7266 28.4574C12.5801 29.6973 11.0381 28.6641 11.0381 26.8262C11.0381 24.8699 11.0381 18.9996 11.0381 18.9996C11.0381 18.9996 11.0381 13.1294 11.0381 11.173C11.0381 9.33521 12.5791 8.302 14.7266 9.54187C17.9961 11.4303 27.8042 17.0968 27.8042 17.0968C29.269 17.9425 29.269 20.0568 27.8042 20.9025C27.8032 20.9025 17.9961 26.5688 14.7266 28.4574Z" fill="#6FE4FF" fill-opacity="1.000000" fill-rule="nonzero"/>
	</mask>
	<g mask="url(#mask26_1320)">
		<g filter="url(#filter_26_1321_dd)">
			<path id="Blur" d="M3.68896 28.4585C1.54248 29.6984 0.000488281 28.6652 0.000488281 26.8274C0.000488281 24.871 0.000488281 19.0007 0.000488281 19.0007C0.000488281 19.0007 0.000488281 13.1305 0.000488281 11.1741C0.000488281 9.3363 1.5415 8.3031 3.68896 9.54297C7.03223 11.4735 17.0605 17.2672 17.0605 17.2672C18.394 18.0374 18.394 19.9631 17.0605 20.7333C17.0605 20.7343 7.03223 26.5278 3.68896 28.4585Z" fill="#99D100" fill-opacity="1.000000" fill-rule="nonzero"/>
		</g>
	</g>
</svg>
