<svg width="244.310547" height="201.510132" viewBox="0 0 244.311 201.51" fill="none" xmlns="http://www.w3.org/2000/svg" xmlns:xlink="http://www.w3.org/1999/xlink">
	<desc>
			Created with Pixso.
	</desc>
	<defs/>
	<mask id="mask_26_1246" fill="white">
		<path id="Union" d="M102.515 174.038C116.623 177.819 131.124 169.486 134.974 155.415C131.273 169.526 139.665 183.993 153.773 187.773C167.928 191.566 182.477 183.166 186.27 169.011L186.966 166.415C189.795 155.857 201.525 150.188 211.195 145.096C217.609 141.718 222.65 135.778 224.674 128.223C226.698 120.669 225.303 113.004 221.437 106.872C215.609 97.6262 208.285 86.8517 211.114 76.2946L211.809 73.7008C215.601 59.546 207.201 44.9966 193.046 41.2037C178.938 37.4235 164.438 45.756 160.587 59.8264C164.288 45.7156 155.896 31.249 141.788 27.4688C127.633 23.6759 113.083 32.076 109.291 46.231L103.497 67.8549L109.291 46.231C113.083 32.076 104.681 17.5271 90.5261 13.7343C76.3713 9.94153 61.8218 18.3417 58.0291 32.4965L57.332 35.0977C54.5042 45.6516 42.7803 51.3204 33.1133 56.4128C26.7004 59.7909 21.6609 65.7307 19.637 73.2838C17.6133 80.8369 19.0078 88.5007 22.8723 94.6326C28.698 103.876 36.0168 114.647 33.189 125.201L32.4907 127.807C28.698 141.962 37.0981 156.511 51.2529 160.304C65.4077 164.097 79.9573 155.697 83.75 141.542L89.5449 119.915L83.75 141.542C79.9573 155.696 88.3599 170.245 102.515 174.038Z" clip-rule="evenodd" fill="" fill-opacity="1.000000" fill-rule="evenodd"/>
	</mask>
	<path id="Union" d="M102.515 174.038C116.623 177.819 131.124 169.486 134.974 155.415C131.273 169.526 139.665 183.993 153.773 187.773C167.928 191.566 182.477 183.166 186.27 169.011L186.966 166.415C189.795 155.857 201.525 150.188 211.195 145.096C217.609 141.718 222.65 135.778 224.674 128.223C226.698 120.669 225.303 113.004 221.437 106.872C215.609 97.6262 208.285 86.8517 211.114 76.2946L211.809 73.7008C215.601 59.546 207.201 44.9966 193.046 41.2037C178.938 37.4235 164.438 45.756 160.587 59.8264C164.288 45.7156 155.896 31.249 141.788 27.4688C127.633 23.6759 113.083 32.076 109.291 46.231L103.497 67.8549L109.291 46.231C113.083 32.076 104.681 17.5271 90.5261 13.7343C76.3713 9.94153 61.8218 18.3417 58.0291 32.4965L57.332 35.0977C54.5042 45.6516 42.7803 51.3204 33.1133 56.4128C26.7004 59.7909 21.6609 65.7307 19.637 73.2838C17.6133 80.8369 19.0078 88.5007 22.8723 94.6326C28.698 103.876 36.0168 114.647 33.189 125.201L32.4907 127.807C28.698 141.962 37.0981 156.511 51.2529 160.304C65.4077 164.097 79.9573 155.697 83.75 141.542L89.5449 119.915L83.75 141.542C79.9573 155.696 88.3599 170.245 102.515 174.038Z" clip-rule="evenodd" fill="#271A58" fill-opacity="1.000000" fill-rule="evenodd" mask="url(#mask_26_1246)"/>
	<path id="Union" d="M91.957 171.117Q96.2888 174.441 101.997 175.97Q107.685 177.494 113.083 176.79Q118.48 176.087 123.587 173.155Q128.697 170.222 132.028 165.913Q132.132 165.778 132.233 165.644Q132.254 165.813 132.277 165.98Q133.007 171.377 135.965 176.472Q138.922 181.565 143.245 184.873Q147.567 188.181 153.255 189.705Q158.964 191.235 164.377 190.522Q169.79 189.809 174.907 186.855Q180.025 183.9 183.349 179.568Q186.673 175.237 188.202 169.529L188.898 166.932Q190.506 160.929 197.079 155.793Q201.122 152.634 210.658 147.636Q211.638 147.123 212.127 146.865Q217.737 143.911 221.36 139.371Q224.971 134.844 226.606 128.741Q228.241 122.638 227.377 116.912Q226.511 111.169 223.129 105.805Q222.837 105.341 222.243 104.403Q216.482 95.3068 214.561 90.5492Q211.437 82.8149 213.045 76.8123L213.74 74.2185Q215.27 68.5101 214.557 63.0969Q213.844 57.6841 210.89 52.5665Q207.935 47.4486 203.603 44.1248Q199.272 40.8013 193.564 39.2719Q187.876 37.7477 182.478 38.4515Q177.081 39.1553 171.974 42.0865Q166.865 45.0196 163.534 49.328Q163.43 49.4627 163.328 49.5986Q163.307 49.4296 163.284 49.2611Q162.554 43.8644 159.595 38.7693Q156.639 33.6778 152.317 30.3699Q147.994 27.0612 142.305 25.5369Q136.597 24.0074 131.184 24.72Q125.771 25.4326 120.654 28.3873Q115.536 31.342 112.212 35.6734Q112.14 35.7672 112.069 35.8619Q112.055 35.7461 112.039 35.6303Q111.327 30.2158 108.371 25.0967Q105.415 19.979 101.084 16.6554Q96.7518 13.3319 91.0437 11.8025Q85.3357 10.273 79.9228 10.9855Q74.5097 11.6981 69.3918 14.653Q64.2741 17.6077 60.9505 21.939Q57.6267 26.2706 56.0972 31.9789L55.4001 34.5801Q53.792 40.5817 47.2219 45.7173Q43.1804 48.8763 33.6465 53.8739Q32.665 54.3884 32.1812 54.6433Q26.572 57.598 22.9506 62.1381Q19.3402 66.6643 17.7053 72.7661Q16.0702 78.8682 16.9339 84.5934Q17.8001 90.3357 21.1802 95.6989Q21.4719 96.1615 22.0647 97.0979Q27.8225 106.193 29.7429 110.95Q32.8652 118.682 31.2571 124.684L30.5588 127.289Q29.0294 132.997 29.742 138.41Q30.4547 143.823 33.4094 148.941Q36.364 154.059 40.6952 157.382Q45.0268 160.706 50.7354 162.236Q56.4433 163.765 61.8562 163.053Q67.2693 162.34 72.3872 159.385Q77.505 156.43 80.8287 152.099Q80.9009 152.005 80.9718 151.911Q80.986 152.027 81.0013 152.143Q81.7139 157.557 84.6699 162.676Q87.6252 167.793 91.957 171.117ZM80.7755 148.5C74.804 158.295 62.8949 163.423 51.2529 160.304C37.0981 156.511 28.698 141.962 32.4907 127.807L33.189 125.201C35.8757 115.174 29.4035 104.951 23.7546 96.0283C23.4578 95.5594 23.1632 95.0941 22.8723 94.6326C19.0078 88.5007 17.6133 80.8369 19.637 73.2838C21.6609 65.7307 26.7004 59.7909 33.1133 56.4128C42.7803 51.3204 54.5042 45.6516 57.332 35.0977L58.0291 32.4965C61.8218 18.3417 76.3713 9.94153 90.5261 13.7343C102.168 16.8538 109.919 27.2495 110.194 38.7176C110.253 41.1929 109.964 43.7181 109.291 46.231C109.964 43.7181 110.976 41.3867 112.265 39.2726C118.237 29.4779 130.146 24.3492 141.788 27.4688C153.431 30.5884 161.18 40.9856 161.453 52.4548C161.511 54.8836 161.234 57.3604 160.587 59.8264C161.26 57.3674 162.258 55.0836 163.523 53.0091C169.494 43.2135 181.404 38.0841 193.046 41.2037C207.201 44.9966 215.601 59.546 211.809 73.7008L211.114 76.2946C208.426 86.3238 214.902 96.5493 220.553 105.474C220.851 105.943 221.146 106.41 221.437 106.872C225.303 113.004 226.698 120.669 224.674 128.223C222.65 135.778 217.609 141.718 211.195 145.096C201.525 150.188 189.795 155.857 186.966 166.415L186.27 169.011C182.477 183.166 167.928 191.566 153.773 187.773C142.13 184.654 134.381 174.257 134.108 162.788C134.05 160.358 134.327 157.881 134.974 155.415C134.301 157.874 133.303 160.158 132.038 162.233C126.067 172.029 114.157 177.158 102.515 174.038C90.8726 170.919 83.1218 160.523 82.847 149.055C82.7877 146.58 83.0767 144.054 83.75 141.542C83.0767 144.054 82.0644 146.386 80.7755 148.5Z" clip-rule="evenodd" fill="#FF8071" fill-opacity="1.000000" fill-rule="evenodd"/>
	<path id="Измени своё тело за полгода" d="M65.4491 63.3426L66.8528 63.744L63.6647 74.8938L75.4675 66.2072L76.7586 66.5763L72.9101 80.0359L71.5064 79.6346L74.6904 68.4988L62.8916 77.1714L61.6006 76.8022L65.4491 63.3426ZM83.4036 77.3383Q84.4122 77.8958 84.8232 78.6786Q85.2342 79.4614 84.9805 80.3487Q84.7281 81.2313 83.9192 81.7516Q83.1162 82.2686 81.9713 82.3475Q80.8264 82.4264 79.5776 82.0694Q78.4791 81.7552 77.514 81.134Q76.549 80.5127 75.9362 79.6722L76.6875 78.785Q77.2333 79.5048 78.0703 80.0589Q78.9132 80.6098 79.8569 80.8796Q81.2606 81.2809 82.3043 81.0055Q83.3479 80.73 83.6057 79.8287Q83.8365 79.0212 83.233 78.3611Q82.6356 77.6976 81.368 77.3352L79.6357 76.8399L79.9216 75.8399L81.5741 76.3124Q82.7102 76.6373 83.5238 76.4027Q84.3421 76.1694 84.5516 75.4371Q84.7824 74.6296 84.1347 73.9467Q83.4869 73.2638 82.2381 72.9067Q80.6044 72.4396 78.7719 72.8094L78.689 71.6431Q80.7663 71.2162 82.7099 71.7719Q83.8601 72.1008 84.6976 72.706Q85.5366 73.3064 85.8865 74.0718Q86.2412 74.8385 86.0103 75.6459Q85.7902 76.4159 85.0892 76.8604Q84.3929 77.3063 83.4036 77.3383ZM101.298 77.2138L98.4065 87.3261L97.1577 86.9691L99.4451 78.9693L93.411 84.5672L92.796 84.3913L90.6432 76.4323L88.3505 84.4508L87.1017 84.0938L89.9931 73.9814L91.3781 74.3774L93.581 82.8891L100.03 76.8514L101.298 77.2138ZM112.314 86.2901L103.854 83.8712Q103.52 85.4822 104.336 86.7668Q105.158 88.048 106.83 88.5258Q107.773 88.7956 108.657 88.6878Q109.543 88.5753 110.307 88.0879L110.819 89.1893Q109.917 89.8048 108.787 89.9387Q107.657 90.0726 106.446 89.7263Q104.887 89.2807 103.874 88.2751Q102.862 87.2695 102.521 85.9025Q102.186 84.5369 102.609 83.0581Q103.033 81.5746 104.01 80.5895Q104.994 79.6011 106.302 79.2693Q107.617 78.9342 109.021 79.3356Q110.424 79.737 111.349 80.7123Q112.28 81.6844 112.581 83.0299Q112.888 84.372 112.458 85.8743L112.314 86.2901ZM108.685 80.5093Q107.225 80.0918 105.967 80.7428Q104.711 81.3891 104.145 82.8525L111.319 84.9036Q111.612 83.3624 110.887 82.1496Q110.164 80.9321 108.685 80.5093ZM116.78 81.6405L118.146 82.0311L116.865 86.5098L123.227 88.3287L124.507 83.85L125.873 84.2406L122.982 94.3529L121.616 93.9623L122.891 89.5024L116.53 87.6835L115.254 92.1434L113.888 91.7528L116.78 81.6405ZM129.615 85.3106L130.981 85.7012L128.683 93.7385L137.728 87.6301L138.939 87.9765L136.048 98.0888L134.681 97.6982L136.979 89.6609L127.954 95.7746L126.724 95.4229L129.615 85.3106ZM148.902 101.866Q147.404 101.438 146.408 100.447Q145.411 99.4559 145.073 98.0795Q144.74 96.7045 145.163 95.2257Q145.587 93.7422 146.593 92.7652Q147.605 91.7848 148.974 91.4705Q150.345 91.1515 151.843 91.5797Q153.153 91.9542 154.034 92.7599Q154.918 93.5609 155.233 94.7126L154.016 95.1161Q153.733 94.2227 153.07 93.627Q152.408 93.0312 151.502 92.7722Q150.408 92.4594 149.389 92.7013Q148.376 92.9399 147.624 93.705Q146.878 94.4668 146.548 95.6217Q146.213 96.7953 146.444 97.8316Q146.682 98.8646 147.416 99.6025Q148.154 100.342 149.248 100.655Q150.154 100.914 151.027 100.772Q151.902 100.626 152.614 100.017L153.436 100.999Q152.559 101.809 151.375 102.025Q150.193 102.235 148.902 101.866ZM163.322 100.23Q165.241 101.297 164.669 103.297Q164.289 104.625 163.104 105.058Q161.92 105.487 159.981 104.932L155.385 103.618L158.277 93.5057L162.737 94.7809Q164.469 95.2762 165.254 96.2268Q166.043 97.1787 165.686 98.4275Q165.448 99.2584 164.83 99.7164Q164.212 100.17 163.322 100.23ZM158.315 98.3817L161.352 99.2502Q162.526 99.5858 163.276 99.3231Q164.032 99.0616 164.275 98.2119Q164.516 97.3669 164.008 96.7645Q163.504 96.1634 162.331 95.8278L159.293 94.9593L158.315 98.3817ZM160.228 103.84Q161.538 104.214 162.311 103.978Q163.086 103.738 163.343 102.836Q163.602 101.93 163.13 101.328Q162.657 100.725 161.371 100.358L158.023 99.4005L157.017 102.921L160.228 103.84ZM171.075 108.206Q169.615 107.788 168.63 106.791Q167.646 105.793 167.305 104.426Q166.97 103.06 167.392 101.582Q167.817 100.098 168.822 99.1211Q169.834 98.1408 171.194 97.8238Q172.556 97.5021 174.016 97.9196Q175.476 98.3371 176.461 99.3299Q177.448 100.318 177.775 101.681Q178.107 103.041 177.683 104.524Q177.26 106.003 176.258 106.986Q175.26 107.97 173.898 108.297Q172.535 108.623 171.075 108.206ZM171.421 106.994Q172.501 107.303 173.495 107.059Q174.489 106.815 175.225 106.051Q175.968 105.283 176.298 104.128Q176.628 102.973 176.403 101.934Q176.183 100.891 175.468 100.158Q174.754 99.4208 173.675 99.112Q172.6 98.8046 171.6 99.0519Q170.605 99.2959 169.853 100.061Q169.107 100.823 168.777 101.978Q168.447 103.133 168.676 104.178Q168.911 105.221 169.626 105.953Q170.346 106.687 171.421 106.994ZM189.183 108.269L180.723 105.85Q180.39 107.461 181.206 108.746Q182.028 110.027 183.699 110.505Q184.643 110.775 185.527 110.667Q186.412 110.555 187.176 110.067L187.689 111.169Q186.787 111.784 185.657 111.918Q184.526 112.052 183.315 111.706Q181.757 111.26 180.744 110.254Q179.731 109.249 179.391 107.882Q179.055 106.516 179.478 105.037Q179.902 103.554 180.88 102.569Q181.863 101.58 183.172 101.249Q184.486 100.913 185.89 101.315Q187.294 101.716 188.218 102.692Q189.149 103.664 189.45 105.009Q189.757 106.351 189.327 107.854L189.183 108.269ZM185.554 102.488Q184.094 102.071 182.837 102.722Q181.58 103.368 181.015 104.832L188.188 106.883Q188.482 105.342 187.757 104.129Q187.033 102.911 185.554 102.488ZM184.736 98.8873Q184.388 98.788 184.215 98.4895Q184.042 98.1863 184.147 97.8201Q184.245 97.4774 184.553 97.3064Q184.862 97.1308 185.209 97.2301Q185.533 97.3227 185.712 97.638Q185.897 97.9499 185.799 98.2926Q185.7 98.64 185.386 98.8143Q185.078 98.9853 184.736 98.8873ZM188.158 99.8659Q187.811 99.7666 187.64 99.4587Q187.47 99.1461 187.569 98.7987Q187.667 98.456 187.985 98.2877Q188.303 98.1147 188.632 98.2087Q188.975 98.3067 189.144 98.6192Q189.32 98.9285 189.222 99.2712Q189.117 99.6374 188.806 99.8023Q188.501 99.9639 188.158 99.8659ZM52.756 83.3658L48.9298 82.2718L46.3847 91.1729L45.0186 90.7823L47.5636 81.8812L43.7375 80.7872L44.0838 79.5759L53.1023 82.1546L52.756 83.3658ZM61.7532 90.5547L53.2934 88.1358Q52.9597 89.7468 53.7757 91.0314Q54.5977 92.3126 56.269 92.7904Q57.2127 93.0603 58.0967 92.9524Q58.982 92.8399 59.7461 92.3525L60.2589 93.4539Q59.3567 94.0694 58.2265 94.2033Q57.0964 94.3372 55.8852 93.9909Q54.3265 93.5453 53.314 92.5397Q52.3014 91.5341 51.9609 90.1671Q51.6252 88.8015 52.048 87.3227Q52.4722 85.8392 53.4496 84.8541Q54.4331 83.8657 55.7417 83.5339Q57.0563 83.1988 58.46 83.6002Q59.8638 84.0016 60.7885 84.9769Q61.7192 85.949 62.0201 87.2945Q62.327 88.6366 61.8975 90.1389L61.7532 90.5547ZM58.1245 84.7739Q56.6644 84.3564 55.4067 85.0074Q54.1504 85.6537 53.5847 87.1171L60.7581 89.1682Q61.0515 87.627 60.3267 86.4142Q59.6033 85.1967 58.1245 84.7739ZM74.275 88.2085L71.3835 98.3208L70.0174 97.9302L72.5625 89.0291L67.7176 87.6438L66.8673 90.1024Q65.815 93.2143 64.753 94.744Q63.6923 96.2689 62.2088 95.8447Q61.805 95.7293 61.2719 95.4093L61.7061 94.2638Q62.032 94.4382 62.1634 94.4758Q62.9521 94.7013 63.564 94.0891Q64.1771 93.4722 64.6206 92.436Q65.0655 91.3952 65.6641 89.6568L66.8715 86.0916L74.275 88.2085ZM79.267 100.676Q77.807 100.259 76.8226 99.2615Q75.8382 98.2639 75.4977 96.897Q75.162 95.5314 75.5848 94.0525Q76.009 92.569 77.0146 91.592Q78.0262 90.6116 79.3864 90.2947Q80.748 89.973 82.2081 90.3905Q83.6681 90.8079 84.6539 91.8008Q85.6409 92.7889 85.9673 94.1518Q86.2997 95.5114 85.8755 96.9949Q85.4527 98.4738 84.4505 99.4568Q83.4529 100.441 82.09 100.768Q80.727 101.094 79.267 100.676ZM79.6133 99.4653Q80.6931 99.774 81.6871 99.5301Q82.6812 99.2861 83.4178 98.5217Q84.1604 97.7539 84.4906 96.599Q84.8208 95.4441 84.595 94.4044Q84.3752 93.3614 83.6604 92.6289Q82.9469 91.8916 81.8671 91.5829Q80.792 91.2755 79.792 91.5228Q78.7979 91.7667 78.0459 92.5319Q77.2999 93.2936 76.9697 94.4485Q76.6395 95.6034 76.8687 96.6491Q77.1039 97.6914 77.8187 98.424Q78.5382 99.1579 79.6133 99.4653ZM98.5306 100.385Q99.5393 100.942 99.9503 101.725Q100.361 102.508 100.108 103.395Q99.8552 104.278 99.0462 104.798Q98.2433 105.315 97.0984 105.394Q95.9535 105.473 94.7047 105.116Q93.6061 104.802 92.6411 104.181Q91.6761 103.559 91.0632 102.719L91.8146 101.832Q92.3604 102.551 93.1973 103.106Q94.0403 103.656 94.9839 103.926Q96.3876 104.328 97.4313 104.052Q98.475 103.777 98.7327 102.875Q98.9636 102.068 98.3601 101.408Q97.7626 100.744 96.4951 100.382L94.7627 99.8865L95.0486 98.8865L96.7012 99.359Q97.8373 99.6839 98.6509 99.4493Q99.4692 99.216 99.6786 98.4837Q99.9095 97.6762 99.2617 96.9933Q98.614 96.3104 97.3652 95.9533Q95.7314 95.4862 93.899 95.856L93.816 94.6897Q95.8933 94.2628 97.8369 94.8186Q98.9871 95.1474 99.8247 95.7526Q100.664 96.353 101.014 97.1184Q101.368 97.8851 101.137 98.6926Q100.917 99.4625 100.216 99.907Q99.5199 100.353 98.5306 100.385ZM108.622 97.9429Q110.603 98.5094 111.376 99.802Q112.154 101.096 111.598 103.04L109.806 109.307L108.496 108.932L108.947 107.355Q108.262 108.012 107.239 108.197Q106.221 108.383 104.991 108.032Q103.296 107.547 102.527 106.454Q101.758 105.36 102.136 104.036Q102.505 102.745 103.665 102.224Q104.825 101.702 106.862 102.285L110.073 103.203L110.249 102.588Q110.622 101.283 110.085 100.393Q109.553 99.4991 108.145 99.0964Q107.187 98.8226 106.208 98.8881Q105.236 98.9503 104.442 99.3278L104.119 98.1332Q105.07 97.6994 106.248 97.65Q107.429 97.602 108.622 97.9429ZM105.509 107.017Q106.664 107.347 107.641 107.058Q108.619 106.763 109.308 105.879L109.781 104.226L106.607 103.319Q104.011 102.577 103.494 104.384Q103.242 105.267 103.767 105.97Q104.298 106.671 105.509 107.017ZM130.155 104.186L127.264 114.299L125.898 113.908L128.443 105.007L122.1 103.193L119.555 112.095L118.189 111.704L121.081 101.592L130.155 104.186ZM135.148 116.654Q133.688 116.237 132.703 115.239Q131.719 114.242 131.378 112.875Q131.043 111.509 131.465 110.03Q131.89 108.547 132.895 107.57Q133.907 106.59 135.267 106.273Q136.629 105.951 138.089 106.368Q139.549 106.786 140.534 107.779Q141.522 108.767 141.848 110.13Q142.18 111.489 141.756 112.973Q141.333 114.452 140.331 115.435Q139.333 116.419 137.971 116.745Q136.608 117.072 135.148 116.654ZM135.494 115.443Q136.574 115.752 137.568 115.508Q138.562 115.264 139.298 114.5Q140.041 113.732 140.371 112.577Q140.701 111.422 140.476 110.382Q140.256 109.339 139.541 108.607Q138.827 107.87 137.748 107.561Q136.673 107.253 135.673 107.501Q134.679 107.745 133.926 108.51Q133.181 109.272 132.85 110.426Q132.52 111.581 132.749 112.627Q132.984 113.669 133.699 114.402Q134.419 115.136 135.494 115.443ZM154.192 111.059L151.301 121.172L149.935 120.781L152.48 111.88L147.635 110.494L146.785 112.953Q145.732 116.065 144.67 117.595Q143.61 119.12 142.126 118.695Q141.722 118.58 141.189 118.26L141.623 117.115Q141.949 117.289 142.081 117.327Q142.869 117.552 143.481 116.94Q144.094 116.323 144.538 115.287Q144.983 114.246 145.581 112.508L146.789 108.942L154.192 111.059ZM164.737 115.385L158.954 113.731L156.408 122.632L155.042 122.241L157.934 112.129L165.084 114.173L164.737 115.385ZM167.713 125.966Q166.252 125.548 165.268 124.551Q164.284 123.553 163.943 122.186Q163.607 120.821 164.03 119.342Q164.455 117.858 165.46 116.881Q166.472 115.901 167.832 115.584Q169.194 115.262 170.654 115.68Q172.114 116.097 173.099 117.09Q174.086 118.078 174.413 119.441Q174.745 120.801 174.321 122.284Q173.898 123.763 172.896 124.746Q171.898 125.73 170.536 126.057Q169.173 126.383 167.713 125.966ZM168.059 124.754Q169.139 125.063 170.133 124.819Q171.127 124.575 171.863 123.811Q172.606 123.043 172.936 121.888Q173.266 120.733 173.041 119.694Q172.821 118.651 172.106 117.918Q171.392 117.181 170.313 116.872Q169.238 116.565 168.238 116.812Q167.243 117.056 166.491 117.821Q165.745 118.583 165.415 119.738Q165.085 120.893 165.314 121.938Q165.549 122.981 166.264 123.713Q166.984 124.447 168.059 124.754ZM185.803 129.747L184.764 133.38L183.478 133.013L184.176 130.571L175.115 127.981L174.417 130.422L173.131 130.054L174.17 126.42L174.747 126.586Q175.782 126.82 176.555 125.483Q177.335 124.141 178.214 121.584L179.316 118.243L186.776 120.376L184.226 129.296L185.803 129.747ZM179.439 122.021Q178.729 124.149 178.059 125.465Q177.394 126.779 176.554 127.102L182.859 128.905L185.064 121.196L180.2 119.806L179.439 122.021ZM194.366 122.46Q196.347 123.026 197.12 124.319Q197.898 125.613 197.342 127.556L195.55 133.824L194.24 133.449L194.691 131.872Q194.005 132.529 192.983 132.714Q191.964 132.9 190.734 132.548Q189.04 132.064 188.271 130.97Q187.501 129.877 187.88 128.553Q188.249 127.262 189.409 126.74Q190.569 126.219 192.606 126.801L195.817 127.72L195.993 127.105Q196.366 125.799 195.829 124.909Q195.297 124.016 193.889 123.613Q192.931 123.339 191.952 123.405Q190.98 123.467 190.186 123.844L189.862 122.65Q190.814 122.216 191.991 122.167Q193.173 122.119 194.366 122.46ZM191.253 131.534Q192.408 131.864 193.385 131.574Q194.363 131.28 195.052 130.396L195.525 128.743L192.351 127.836Q189.755 127.093 189.238 128.901Q188.986 129.783 189.511 130.487Q190.042 131.187 191.253 131.534Z" fill="#FF8071" fill-opacity="1.000000" fill-rule="evenodd"/>
</svg>
